<?xml version="1.0" encoding="UTF-8"?>
<!DOCTYPE svg PUBLIC "-//W3C//DTD SVG 1.1//EN" "http://www.w3.org/Graphics/SVG/1.1/DTD/svg11.dtd">
<!-- Creator: CorelDRAW -->
<svg xmlns="http://www.w3.org/2000/svg" xml:space="preserve" width="200px" height="50px" style="shape-rendering:geometricPrecision; text-rendering:geometricPrecision; image-rendering:optimizeQuality; fill-rule:evenodd; clip-rule:evenodd"
viewBox="0 0 189.604 29.6672"
 xmlns:xlink="http://www.w3.org/1999/xlink">
 <defs>
  <style type="text/css">
   <![CDATA[
    .fil2 {fill:#9900FF}
    .fil1 {fill:#9900FF;fill-rule:nonzero}
    .fil0 {fill:white;fill-rule:nonzero}
   ]]>
  </style>
 </defs>
 <g id="Layer_x0020_1">
  <metadata id="CorelCorpID_0Corel-Layer"/>
  <path class="fil0" d="M-0.000207132 1.16471l18.2451 0 0 3.61011 -14.4794 0 0 8.53986 12.9265 0 0 3.61032 -12.9265 0 0 8.69542 15.0227 0 0 3.61011 -18.7884 0 0 -28.0658zm43.7876 24.417l9.62731 0 0 3.64884 -14.6347 0 5.00743 -3.64884zm-20.2244 -10.3647c0,-1.94083 0.368696,-3.77188 1.10629,-5.49294 0.737598,-1.72086 1.76622,-3.24784 3.08607,-4.58053 1.31985,-1.3329 2.8402,-2.38078 4.56126,-3.14427 1.72086,-0.763283 3.57759,-1.14524 5.57041,-1.14524 1.96672,0 3.81061,0.381952 5.53168,1.14524 1.72106,0.76349 3.24784,1.81137 4.58073,3.14427 1.33269,1.33269 2.37436,2.85967 3.1248,4.58053 0.750441,1.72106 1.12576,3.55211 1.12576,5.49294 0,1.99282 -0.375324,3.85598 -1.12576,5.58988 -0.750441,1.73391 -1.79211,3.25446 -3.1248,4.56126 -1.3329,1.3068 -2.85967,2.329 -4.58073,3.0666 -1.72106,0.737598 -3.56496,1.10629 -5.53168,1.10629 -1.99282,0 -3.84956,-0.362275 -5.57041,-1.08682 -1.72106,-0.724549 -3.24141,-1.73391 -4.56126,-3.02786 -1.31985,-1.29416 -2.34847,-2.80789 -3.08607,-4.54179 -0.737598,-1.73411 -1.10629,-3.62316 -1.10629,-5.66756zm3.88187 0.0387338c0,1.4752 0.271758,2.85325 0.815273,4.13436 0.543308,1.28091 1.29396,2.41309 2.25132,3.39635 0.957573,0.983672 2.07029,1.74716 3.33856,2.29047 1.26786,0.543515 2.6397,0.815066 4.11469,0.815066 1.44931,0 2.80789,-0.271551 4.07595,-0.815066 1.26806,-0.543308 2.36794,-1.3068 3.29962,-2.29047 0.931474,-0.983257 1.66928,-2.11544 2.21259,-3.39635 0.543515,-1.28111 0.815273,-2.67201 0.815273,-4.1731 0,-1.44931 -0.271758,-2.82094 -0.815273,-4.11489 -0.543308,-1.29396 -1.29396,-2.42614 -2.25132,-3.39656 -0.957573,-0.970415 -2.07029,-1.7337 -3.33856,-2.29026 -1.26786,-0.556565 -2.62685,-0.834536 -4.07595,-0.834536 -1.4752,0 -2.84662,0.277972 -4.11469,0.834536 -1.26806,0.556565 -2.38099,1.32627 -3.33856,2.30973 -0.957573,0.983257 -1.69496,2.12207 -2.21259,3.41603 -0.517624,1.29396 -0.776332,2.66559 -0.776332,4.11469zm35.6742 4.03722c0,1.26806 0.304277,2.40025 0.912211,3.39676 0.608141,0.996307 1.41699,1.77927 2.42635,2.34826 1.00936,0.569407 2.14796,0.854007 3.41603,0.854007 1.31985,0 2.49719,-0.2846 3.53244,-0.854007 1.03504,-0.568993 1.85031,-1.35195 2.44561,-2.34826 0.595091,-0.996514 0.892948,-2.1287 0.892948,-3.39676l0 -18.1282 3.68779 0 0 18.2446c0,2.0446 -0.472469,3.83029 -1.41699,5.35707 -0.944524,1.52698 -2.2128,2.70432 -3.80419,3.53264 -1.59161,0.827908 -3.37087,1.24197 -5.33759,1.24197l0 0c-1.96693,0 -3.73957,-0.414058 -5.31812,-1.24197 -1.57876,-0.828322 -2.83378,-2.00566 -3.76567,-3.53264 -0.931474,-1.52677 -1.39732,-3.31246 -1.39732,-5.35707l0 -18.2446 3.72652 0 0 18.1282zm22.2044 9.93759l12.2666 -29.2305 0.233024 0 12.2281 29.2305 -4.30898 0 -9.16126 -23.3299 2.67843 -1.74695 -10.2481 25.0769 -3.68779 0zm7.18149 -10.6362l10.4422 0 1.24217 3.26068 -12.7714 0 1.08703 -3.26068zm22.8254 -17.4296l3.76546 0 0 24.4557 14.2466 0 0 3.61011 -18.012 0 0 -28.0658z"/>
  <polygon class="fil1" points="176.757,29.6672 180.606,29.6672 189.604,8.21259 184.091,8.21259 178.682,22.3077 173.272,8.21259 167.759,8.21259 "/>
  <path class="fil1" d="M140.662 25.2983l0 -12.7165 0.754169 0c0.91449,0.00414265 1.74219,0.168606 2.49222,0.489454 0.745262,0.320641 1.39089,0.771568 1.92861,1.34781 0.541858,0.581006 0.95778,1.25294 1.24818,2.0241 0.2904,0.771775 0.437878,1.60818 0.442228,2.50982 -0.00890669,0.90144 -0.16032,1.73805 -0.455277,2.50506 -0.298892,0.767011 -0.715228,1.43895 -1.25274,2.01126 -0.541651,0.576242 -1.18293,1.02282 -1.92882,1.34325 -0.740913,0.316705 -1.56882,0.481376 -2.4744,0.485725l-0.754169 0z"/>
  <path class="fil1" d="M135.773 8.21259l0 21.4546 6.21521 0c1.1877,-0.00434978 2.31885,-0.177512 3.39366,-0.515553 1.07481,-0.338454 2.06304,-0.828115 2.96469,-1.4609 0.901647,-0.632789 1.68606,-1.39131 2.35365,-2.27535 0.663238,-0.884455 1.18293,-1.87268 1.54707,-2.96469 0.368489,-1.09242 0.554908,-2.26686 0.559257,-3.52353 -0.00434978,-1.25294 -0.190769,-2.42303 -0.559257,-3.5111 -0.368281,-1.08765 -0.888391,-2.07588 -1.55598,-2.95557 -0.667381,-0.884455 -1.45179,-1.64277 -2.35779,-2.27556 -0.90144,-0.632997 -1.88967,-1.11831 -2.96448,-1.45635 -1.07067,-0.34239 -2.20182,-0.511617 -3.38081,-0.515967l-6.21521 0z"/>
  <polygon class="fil2" points="154.162,8.49719 166.829,8.49719 166.829,12.4282 154.162,12.4282 "/>
  <polygon class="fil2" points="154.162,16.8763 166.829,16.8763 166.829,20.8073 154.162,20.8073 "/>
  <polygon class="fil2" points="154.162,25.2554 166.829,25.2554 166.829,29.1864 154.162,29.1864 "/>
 </g>
</svg>
