<?xml version="1.0" encoding="UTF-8"?>
<!DOCTYPE svg PUBLIC "-//W3C//DTD SVG 1.1//EN" "http://www.w3.org/Graphics/SVG/1.1/DTD/svg11.dtd">
<!-- Creator: CorelDRAW -->
<svg xmlns="http://www.w3.org/2000/svg" xml:space="preserve" width="200px" height="50px" style="shape-rendering:geometricPrecision; text-rendering:geometricPrecision; image-rendering:optimizeQuality; fill-rule:evenodd; clip-rule:evenodd"
viewBox="0 0 189.604 45.0246"
 xmlns:xlink="http://www.w3.org/1999/xlink">
 <defs>
  <style type="text/css">
   <![CDATA[
    .fil2 {fill:#9933CC}
    .fil1 {fill:#9933CC;fill-rule:nonzero}
    .fil0 {fill:white;fill-rule:nonzero}
   ]]>
  </style>
 </defs>
 <g id="Layer_x0020_1">
  <metadata id="CorelCorpID_0Corel-Layer"/>
  <path class="fil0" d="M-0.000207132 1.16471l18.2451 0 0 3.61011 -14.4794 0 0 8.53986 12.9265 0 0 3.61032 -12.9265 0 0 8.69542 15.0227 0 0 3.61011 -18.7884 0 0 -28.0658zm43.7876 24.417l9.62731 0 0 3.64884 -14.6347 0 5.00743 -3.64884zm-20.2244 -10.3647c0,-1.94083 0.368696,-3.77188 1.10629,-5.49294 0.737598,-1.72086 1.76622,-3.24784 3.08607,-4.58053 1.31985,-1.3329 2.8402,-2.38078 4.56126,-3.14427 1.72086,-0.763283 3.57759,-1.14524 5.57041,-1.14524 1.96672,0 3.81061,0.381952 5.53168,1.14524 1.72106,0.76349 3.24784,1.81137 4.58073,3.14427 1.33269,1.33269 2.37436,2.85967 3.1248,4.58053 0.750441,1.72106 1.12576,3.55211 1.12576,5.49294 0,1.99282 -0.375324,3.85598 -1.12576,5.58988 -0.750441,1.73391 -1.79211,3.25446 -3.1248,4.56126 -1.3329,1.3068 -2.85967,2.329 -4.58073,3.0666 -1.72106,0.737598 -3.56496,1.10629 -5.53168,1.10629 -1.99282,0 -3.84956,-0.362275 -5.57041,-1.08682 -1.72106,-0.724549 -3.24141,-1.73391 -4.56126,-3.02786 -1.31985,-1.29416 -2.34847,-2.80789 -3.08607,-4.54179 -0.737598,-1.73411 -1.10629,-3.62316 -1.10629,-5.66756zm3.88187 0.0387338c0,1.4752 0.271758,2.85325 0.815273,4.13436 0.543308,1.28091 1.29396,2.41309 2.25132,3.39635 0.957573,0.983672 2.07029,1.74716 3.33856,2.29047 1.26786,0.543515 2.6397,0.815066 4.11469,0.815066 1.44931,0 2.80789,-0.271551 4.07595,-0.815066 1.26806,-0.543308 2.36794,-1.3068 3.29962,-2.29047 0.931474,-0.983257 1.66928,-2.11544 2.21259,-3.39635 0.543515,-1.28111 0.815273,-2.67201 0.815273,-4.1731 0,-1.44931 -0.271758,-2.82094 -0.815273,-4.11489 -0.543308,-1.29396 -1.29396,-2.42614 -2.25132,-3.39656 -0.957573,-0.970415 -2.07029,-1.7337 -3.33856,-2.29026 -1.26786,-0.556565 -2.62685,-0.834536 -4.07595,-0.834536 -1.4752,0 -2.84662,0.277972 -4.11469,0.834536 -1.26806,0.556565 -2.38099,1.32627 -3.33856,2.30973 -0.957573,0.983257 -1.69496,2.12207 -2.21259,3.41603 -0.517624,1.29396 -0.776332,2.66559 -0.776332,4.11469zm35.6742 4.03722c0,1.26806 0.304277,2.40025 0.912211,3.39676 0.608141,0.996307 1.41699,1.77927 2.42635,2.34826 1.00936,0.569407 2.14796,0.854007 3.41603,0.854007 1.31985,0 2.49719,-0.2846 3.53244,-0.854007 1.03504,-0.568993 1.85031,-1.35195 2.44561,-2.34826 0.595091,-0.996514 0.892948,-2.1287 0.892948,-3.39676l0 -18.1282 3.68779 0 0 18.2446c0,2.0446 -0.472469,3.83029 -1.41699,5.35707 -0.944524,1.52698 -2.2128,2.70432 -3.80419,3.53264 -1.59161,0.827908 -3.37087,1.24197 -5.33759,1.24197l0 0c-1.96693,0 -3.73957,-0.414058 -5.31812,-1.24197 -1.57876,-0.828322 -2.83378,-2.00566 -3.76567,-3.53264 -0.931474,-1.52677 -1.39732,-3.31246 -1.39732,-5.35707l0 -18.2446 3.72652 0 0 18.1282zm22.2044 9.93759l12.2666 -29.2305 0.233024 0 12.2281 29.2305 -4.30898 0 -9.16126 -23.3299 2.67843 -1.74695 -10.2481 25.0769 -3.68779 0zm7.18149 -10.6362l10.4422 0 1.24217 3.26068 -12.7714 0 1.08703 -3.26068zm22.8254 -17.4296l3.76546 0 0 24.4557 14.2466 0 0 3.61011 -18.012 0 0 -28.0658z"/>
  <polygon class="fil1" points="176.757,29.6672 180.606,29.6672 189.604,8.21259 184.091,8.21259 178.682,22.3077 173.272,8.21259 167.759,8.21259 "/>
  <path class="fil1" d="M140.662 25.2983l0 -12.7165 0.754169 0c0.91449,0.00414265 1.74219,0.168606 2.49222,0.489454 0.745262,0.320641 1.39089,0.771568 1.92861,1.34781 0.541858,0.581006 0.95778,1.25294 1.24818,2.0241 0.2904,0.771775 0.437878,1.60818 0.442228,2.50982 -0.00890669,0.90144 -0.16032,1.73805 -0.455277,2.50506 -0.298892,0.767011 -0.715228,1.43895 -1.25274,2.01126 -0.541651,0.576242 -1.18293,1.02282 -1.92882,1.34325 -0.740913,0.316705 -1.56882,0.481376 -2.4744,0.485725l-0.754169 0z"/>
  <path class="fil1" d="M135.773 8.21259l0 21.4546 6.21521 0c1.1877,-0.00434978 2.31885,-0.177512 3.39366,-0.515553 1.07481,-0.338454 2.06304,-0.828115 2.96469,-1.4609 0.901647,-0.632789 1.68606,-1.39131 2.35365,-2.27535 0.663238,-0.884455 1.18293,-1.87268 1.54707,-2.96469 0.368489,-1.09242 0.554908,-2.26686 0.559257,-3.52353 -0.00434978,-1.25294 -0.190769,-2.42303 -0.559257,-3.5111 -0.368281,-1.08765 -0.888391,-2.07588 -1.55598,-2.95557 -0.667381,-0.884455 -1.45179,-1.64277 -2.35779,-2.27556 -0.90144,-0.632997 -1.88967,-1.11831 -2.96448,-1.45635 -1.07067,-0.34239 -2.20182,-0.511617 -3.38081,-0.515967l-6.21521 0z"/>
  <path class="fil0" d="M31.4941 44.6215l0 -8.62541 2.05247 0c0.830808,0 1.53734,0.130079 2.11959,0.391066 0.582663,0.260365 1.05679,0.606484 1.42341,1.03815 0.366417,0.431871 0.633204,0.900197 0.800152,1.40519 0.166949,0.504782 0.25063,1.00583 0.25063,1.50275 0,0.65951 -0.112059,1.25212 -0.335969,1.77761 -0.224117,0.525288 -0.531502,0.975179 -0.922568,1.34988 -0.390859,0.37491 -0.837022,0.661995 -1.33766,0.861257 -0.501053,0.199676 -1.02821,0.299513 -1.58208,0.299513l-2.46798 0zm0.427521 -0.403287l1.90583 0c0.52943,0 1.02821,-0.0894812 1.49653,-0.268651 0.468326,-0.179377 0.881763,-0.439949 1.24031,-0.782132 0.358339,-0.341976 0.639211,-0.751062 0.842822,-1.22767 0.203611,-0.476612 0.30552,-1.02013 0.30552,-1.63117 0,-0.48034 -0.081403,-0.952809 -0.244209,-1.41699 -0.162806,-0.464391 -0.4153,-0.881763 -0.757483,-1.25232 -0.342183,-0.37056 -0.771982,-0.668002 -1.28919,-0.891912 -0.51721,-0.224117 -1.13405,-0.335969 -1.85073,-0.335969l-1.6494 0 0 7.80682zm8.50341 -8.22212l0.427521 0 0 8.62541 -0.427521 0 0 -8.62541zm7.43999 0.793938c-0.244416,-0.105845 -0.549522,-0.211689 -0.916147,-0.317534 -0.366417,-0.105845 -0.736977,-0.158871 -1.11189,-0.158871 -0.59447,0 -1.07295,0.152657 -1.43543,0.458177 -0.362482,0.305313 -0.543723,0.682087 -0.543723,1.13011 0,0.341976 0.101909,0.625126 0.30552,0.849243 0.203611,0.22391 0.466048,0.413229 0.787725,0.567957 0.321677,0.154728 0.670073,0.301378 1.04478,0.439949 0.285221,0.105845 0.570028,0.22391 0.85525,0.353989 0.285014,0.130493 0.543723,0.289364 0.775711,0.476405 0.232195,0.187455 0.4153,0.417579 0.549937,0.690372 0.134429,0.273 0.201747,0.608969 0.201747,1.00791 0,0.488832 -0.114337,0.916354 -0.342183,1.28298 -0.22826,0.366417 -0.541858,0.649567 -0.941002,0.849036 -0.398937,0.199676 -0.855043,0.299306 -1.36832,0.299306 -0.448027,0 -0.849036,-0.0548901 -1.20344,-0.164877 -0.353989,-0.10978 -0.657645,-0.236131 -0.91014,-0.378845 -0.252494,-0.1423 -0.443678,-0.254359 -0.574171,-0.335969l0.207754 -0.353989c0.170884,0.122001 0.386716,0.250216 0.647289,0.384852 0.260987,0.134222 0.54393,0.24628 0.84945,0.335969 0.305106,0.0892741 0.61684,0.134222 0.934374,0.134222 0.374703,0 0.73532,-0.0733249 1.08123,-0.219975 0.346325,-0.14665 0.631132,-0.370767 0.85525,-0.671937 0.22391,-0.301378 0.335969,-0.684365 0.335969,-1.14834 0,-0.439949 -0.107916,-0.796217 -0.323748,-1.06922 -0.215832,-0.272793 -0.490697,-0.494839 -0.824594,-0.665724 -0.334105,-0.170884 -0.688094,-0.325819 -1.063,-0.464184 -0.285221,-0.0977665 -0.564022,-0.205682 -0.837022,-0.323955 -0.272793,-0.118065 -0.519074,-0.258501 -0.738841,-0.421307 -0.220182,-0.162806 -0.397073,-0.358339 -0.531502,-0.586599 -0.134222,-0.227846 -0.20154,-0.500639 -0.20154,-0.818587 0,-0.398937 0.103773,-0.747334 0.311527,-1.04436 0.207547,-0.297442 0.488418,-0.531502 0.842822,-0.702593 0.354404,-0.170884 0.755412,-0.25643 1.20344,-0.25643 0.358339,0 0.745469,0.0488832 1.16077,0.14665 0.415093,0.0977665 0.773847,0.219767 1.07502,0.366417l-0.158871 0.329755zm2.73705 -0.793938l5.24107 0 0 0.402873 -4.81355 0 0 3.66521 4.33715 0 0 0.415715 -4.33715 0 0 3.73833 4.98464 0 0 0.403287 -5.41216 0 0 -8.62541zm14.8926 8.80851l-6.84158 -8.00235 0.10978 -0.122208 0.0122208 7.94146 -0.4153 0 0 -8.78428 0.0244416 0 6.86602 8.07568 -0.134222 0.0120137 -0.0122208 -7.92882 0.415093 0 0 8.80851 -0.0242345 0zm-2.69997 -9.61509c-0.236338,0 -0.425657,-0.0569614 -0.567957,-0.170884 -0.142714,-0.113923 -0.279007,-0.244416 -0.409501,-0.391066 -0.105845,-0.113923 -0.213968,-0.219767 -0.323748,-0.317534 -0.109987,-0.0977665 -0.24628,-0.146443 -0.409294,-0.146443 -0.0896883,0 -0.185176,0.0323127 -0.287086,0.0975594 -0.101702,0.0652467 -0.189319,0.177098 -0.262644,0.335969 -0.0733249,0.158663 -0.11413,0.380709 -0.122208,0.665931l-0.281079 -0.0246488c0,-0.317534 0.0447406,-0.580385 0.134429,-0.787725 0.0896883,-0.207961 0.207754,-0.364553 0.354404,-0.470605 0.14665,-0.105845 0.30552,-0.158663 0.476405,-0.158663 0.22826,0 0.413436,0.0608969 0.555736,0.183105 0.142714,0.122001 0.270929,0.248352 0.384852,0.378845 0.106259,0.130286 0.21811,0.244209 0.336383,0.341976 0.117651,0.0977665 0.258501,0.14665 0.421307,0.14665 0.162806,0 0.305313,-0.0793317 0.427521,-0.238202 0.122001,-0.158871 0.195533,-0.450306 0.219767,-0.873477l0.281286 0.0242345c0,0.317741 -0.0430835,0.582456 -0.128422,0.794146 -0.0855457,0.211689 -0.197397,0.366417 -0.335969,0.464184 -0.138572,0.0977665 -0.293299,0.14665 -0.464184,0.14665zm5.00908 5.13129c0,-0.610626 0.113923,-1.18293 0.341976,-1.7163 0.22826,-0.53378 0.54393,-1.00397 0.946802,-1.41119 0.403287,-0.407222 0.871613,-0.724963 1.40498,-0.952809 0.53378,-0.22826 1.10174,-0.342183 1.70449,-0.342183 0.602548,0 1.17071,0.115787 1.70449,0.347982 0.533366,0.232403 1.00356,0.549937 1.41078,0.953223 0.407429,0.402873 0.726828,0.871199 0.95923,1.40498 0.232195,0.533366 0.347982,1.10567 0.347982,1.7163 0,0.602755 -0.115787,1.17071 -0.347982,1.70449 -0.232403,0.533366 -0.549729,1.00169 -0.953016,1.40498 -0.40308,0.40308 -0.871406,0.718542 -1.40519,0.946802 -0.533366,0.228053 -1.10547,0.341976 -1.7163,0.341976 -0.610833,0 -1.18107,-0.109987 -1.7105,-0.329755 -0.529223,-0.219975 -0.995685,-0.527566 -1.39897,-0.922361 -0.402873,-0.395209 -0.718542,-0.859392 -0.946802,-1.39276 -0.228053,-0.53378 -0.341976,-1.11789 -0.341976,-1.75338zm0.427521 0.0124279c0,0.545587 0.101909,1.06093 0.30552,1.54541 0.203611,0.484483 0.486554,0.908276 0.849036,1.27034 0.362482,0.362482 0.783789,0.647703 1.26454,0.855457 0.480547,0.207547 0.989679,0.31132 1.52698,0.31132 0.554079,0 1.07336,-0.103773 1.55784,-0.31132 0.484897,-0.207754 0.91014,-0.492975 1.27676,-0.855457 0.366417,-0.362067 0.655781,-0.78586 0.86747,-1.27034 0.211689,-0.484483 0.317534,-1.00397 0.317534,-1.55784 0,-0.545587 -0.105845,-1.06093 -0.317534,-1.54541 -0.211689,-0.484483 -0.498982,-0.912004 -0.861257,-1.28277 -0.362482,-0.37056 -0.786067,-0.661788 -1.27076,-0.873477 -0.484483,-0.212104 -0.999828,-0.317948 -1.54541,-0.317948 -0.56195,0 -1.08517,0.108123 -1.57006,0.324162 -0.484483,0.215418 -0.905997,0.510996 -1.26434,0.885491 -0.358546,0.374703 -0.637139,0.804295 -0.837022,1.28919 -0.199676,0.484483 -0.299306,0.995478 -0.299306,1.53319zm14.3802 4.28826l0 -8.62541 2.05227 0c0.830808,0 1.53734,0.130079 2.11959,0.391066 0.582663,0.260365 1.05679,0.606484 1.42362,1.03815 0.366417,0.431871 0.632997,0.900197 0.799945,1.40519 0.167156,0.504782 0.25063,1.00583 0.25063,1.50275 0,0.65951 -0.112059,1.25212 -0.335969,1.77761 -0.22391,0.525288 -0.531502,0.975179 -0.922568,1.34988 -0.390859,0.37491 -0.836815,0.661995 -1.33766,0.861257 -0.501053,0.199676 -1.02821,0.299513 -1.58208,0.299513l-2.46778 0zm0.427521 -0.403287l1.90562 0c0.529638,0 1.02841,-0.0894812 1.49674,-0.268651 0.468326,-0.179377 0.881555,-0.439949 1.24031,-0.782132 0.358132,-0.341976 0.639211,-0.751062 0.842822,-1.22767 0.203404,-0.476612 0.30552,-1.02013 0.30552,-1.63117 0,-0.48034 -0.0816102,-0.952809 -0.244416,-1.41699 -0.162806,-0.464391 -0.4153,-0.881763 -0.757483,-1.25232 -0.341976,-0.37056 -0.771775,-0.668002 -1.28898,-0.891912 -0.51721,-0.224117 -1.13426,-0.335969 -1.85073,-0.335969l-1.6494 0 0 7.80682zm8.5032 -8.22212l5.24107 0 0 0.402873 -4.81355 0 0 3.66521 4.33715 0 0 0.415715 -4.33715 0 0 3.73833 4.98485 0 0 0.403287 -5.41237 0 0 -8.62541zm13.3654 0c0.505196,0 0.950945,0.0853385 1.33808,0.25643 0.386716,0.171091 0.689958,0.433528 0.91014,0.787932 0.219767,0.354404 0.329755,0.796217 0.329755,1.32585 0,0.317534 -0.0507474,0.624918 -0.152657,0.922153 -0.101702,0.297442 -0.262644,0.564022 -0.482618,0.80036 -0.219767,0.236338 -0.498775,0.425657 -0.836815,0.567957 -0.338247,0.142507 -0.747334,0.213968 -1.22788,0.213968l-1.34387 0 0 3.75075 -0.427521 0 0 -8.62541 1.8934 0zm-0.122001 4.45915c0.448027,0 0.820451,-0.0693894 1.11789,-0.207547 0.297235,-0.138572 0.529638,-0.317741 0.696172,-0.537509 0.167156,-0.220182 0.287086,-0.448027 0.360618,-0.684365 0.0731177,-0.236131 0.109987,-0.460248 0.109987,-0.671937 0,-0.301171 -0.0488832,-0.5721 -0.14665,-0.812373 -0.0975594,-0.240481 -0.240481,-0.444092 -0.427521,-0.611041 -0.187455,-0.166949 -0.413643,-0.297028 -0.677944,-0.390859 -0.264922,-0.0936238 -0.560086,-0.140643 -0.885905,-0.140643l-1.49052 0 0 4.05627 1.34387 0zm4.1296 4.16626l3.6041 -9.01647 0.0364553 0 3.61632 9.01647 -0.476405 0 -3.27414 -8.33211 0.293092 -0.134636 -3.37191 8.46674 -0.427521 0zm1.62475 -3.43322l4.01961 0 0.0977665 0.391066 -4.20272 0 0.0853385 -0.391066zm3.39656 -7.34264l-1.20945 1.62475 -0.330169 0 1.07522 -1.62475 0.464391 0zm10.7754 10.2017c-0.154728,0.0975594 -0.33369,0.187248 -0.537509,0.268444 -0.203611,0.0816102 -0.41965,0.152864 -0.647496,0.213968 -0.228053,0.0613112 -0.460248,0.107916 -0.696379,0.140643 -0.235924,0.0325198 -0.464184,0.0486761 -0.684365,0.0486761 -0.675666,0 -1.28671,-0.111851 -1.8325,-0.335969 -0.545794,-0.22391 -1.01184,-0.533366 -1.39897,-0.928575 -0.386716,-0.394794 -0.68188,-0.856907 -0.885491,-1.38654 -0.203611,-0.52943 -0.30552,-1.09552 -0.30552,-1.69828 0,-0.643353 0.113923,-1.23596 0.342183,-1.7774 0.228053,-0.541858 0.543723,-1.01412 0.946595,-1.41741 0.403287,-0.40308 0.871613,-0.716678 1.40519,-0.940588 0.533573,-0.22391 1.10174,-0.335969 1.70429,-0.335969 0.439949,0 0.85525,0.0550972 1.24611,0.16467 0.391066,0.110194 0.753548,0.262851 1.08765,0.458384l-0.171298 0.378638c-0.195533,-0.113923 -0.411365,-0.215832 -0.647289,-0.30552 -0.236338,-0.0896883 -0.478683,-0.158456 -0.727035,-0.20734 -0.248559,-0.0488832 -0.494839,-0.073532 -0.739256,-0.073532 -0.570235,0 -1.09759,0.103773 -1.58208,0.311734 -0.484897,0.20734 -0.91014,0.494425 -1.27676,0.861257 -0.366417,0.366417 -0.651639,0.793938 -0.85525,1.28256 -0.203611,0.488832 -0.30552,1.01412 -0.30552,1.57628 0,0.553872 0.093831,1.07108 0.281079,1.55142 0.187248,0.480547 0.456313,0.902062 0.806574,1.26454 0.350054,0.362482 0.769497,0.643353 1.25833,0.843029 0.488418,0.199468 1.03442,0.299513 1.63717,0.299513 0.350054,0 0.724549,-0.0430835 1.12369,-0.128629 0.399144,-0.0853385 0.74112,-0.213554 1.02634,-0.384852l0 -2.58998 -2.01581 0 0 -0.415508 2.44333 0 0 3.26234zm2.57797 -8.05124l0.427521 0 0 8.62541 -0.427521 0 0 -8.62541zm10.3968 8.80851l-6.84158 -8.00235 0.109573 -0.122208 0.0124279 7.94146 -0.4153 0 0 -8.78428 0.0242345 0 6.86623 8.07568 -0.134222 0.0120137 -0.0124279 -7.92882 0.4153 0 0 8.80851 -0.0242345 0zm2.13802 -0.183105l3.6041 -9.01647 0.0364553 0 3.61632 9.01647 -0.476405 0 -3.27414 -8.33211 0.293299 -0.134636 -3.37191 8.46674 -0.427728 0zm1.62495 -3.43322l4.0194 0 0.0977665 0.391066 -4.20272 0 0.0855457 -0.391066zm11.9118 -4.39825c-0.244416,-0.105845 -0.549729,-0.211689 -0.916354,-0.317534 -0.366417,-0.105845 -0.736977,-0.158871 -1.11168,-0.158871 -0.594677,0 -1.07295,0.152657 -1.43563,0.458177 -0.362482,0.305313 -0.543723,0.682087 -0.543723,1.13011 0,0.341976 0.101909,0.625126 0.30552,0.849243 0.203611,0.22391 0.466048,0.413229 0.787932,0.567957 0.321677,0.154728 0.669866,0.301378 1.04478,0.439949 0.285014,0.105845 0.569821,0.22391 0.855043,0.353989 0.285221,0.130493 0.543723,0.289364 0.775918,0.476405 0.231988,0.187455 0.415093,0.417579 0.549937,0.690372 0.134222,0.273 0.20154,0.608969 0.20154,1.00791 0,0.488832 -0.114337,0.916354 -0.342183,1.28298 -0.228053,0.366417 -0.541651,0.649567 -0.940795,0.849036 -0.399144,0.199676 -0.855043,0.299306 -1.36852,0.299306 -0.44782,0 -0.848829,-0.0548901 -1.20323,-0.164877 -0.354196,-0.10978 -0.657852,-0.236131 -0.910347,-0.378845 -0.252287,-0.1423 -0.443678,-0.254359 -0.574171,-0.335969l0.207961 -0.353989c0.170884,0.122001 0.386716,0.250216 0.647289,0.384852 0.26078,0.134222 0.543723,0.24628 0.849243,0.335969 0.305313,0.0892741 0.61684,0.134222 0.934374,0.134222 0.37491,0 0.735527,-0.0733249 1.08144,-0.219975 0.346325,-0.14665 0.631132,-0.370767 0.855043,-0.671937 0.224117,-0.301378 0.335969,-0.684365 0.335969,-1.14834 0,-0.439949 -0.107709,-0.796217 -0.323541,-1.06922 -0.216039,-0.272793 -0.490697,-0.494839 -0.824801,-0.665724 -0.333897,-0.170884 -0.688094,-0.325819 -1.0628,-0.464184 -0.285221,-0.0977665 -0.564229,-0.205682 -0.837022,-0.323955 -0.273,-0.118065 -0.519281,-0.258501 -0.739048,-0.421307 -0.219975,-0.162806 -0.397073,-0.358339 -0.531295,-0.586599 -0.134429,-0.227846 -0.201747,-0.500639 -0.201747,-0.818587 0,-0.398937 0.10398,-0.747334 0.311734,-1.04436 0.20734,-0.297442 0.488418,-0.531502 0.842822,-0.702593 0.354404,-0.170884 0.755412,-0.25643 1.20344,-0.25643 0.358132,0 0.745262,0.0488832 1.16056,0.14665 0.4153,0.0977665 0.773847,0.219767 1.07522,0.366417l-0.158871 0.329755zm5.65658 -0.781925l0.488832 0 3.00549 8.17344 -0.109987 -0.0242345 1.82028 -4.99707 0.207754 0.525288 -2.01581 5.33925 -3.39656 -9.01668zm3.93427 0l0.415093 0 3.10346 8.21011 -0.159078 -0.0488832 3.07882 -8.16122 0.45217 0 -3.4821 9.00425 -3.40836 -9.00425zm8.94315 -0.0120137l5.24107 0 0 0.402873 -4.81355 0 0 3.66521 4.33715 0 0 0.415715 -4.33715 0 0 3.73833 4.98464 0 0 0.403287 -5.41216 0 0 -8.62541zm9.56579 0c0.82273,0 1.45821,0.170884 1.90603,0.513067 0.448027,0.341976 0.671937,0.89999 0.671937,1.67363 0,0.358546 -0.0650396,0.692236 -0.195533,1.00211 -0.130286,0.309249 -0.325819,0.567957 -0.586392,0.775711 -0.260573,0.207547 -0.594677,0.344047 -1.00169,0.409086l-0.0366624 -0.195533c0.407222,0.0408051 0.781718,0.154728 1.12369,0.342183 0.342183,0.187455 0.617047,0.437878 0.824801,0.751269 0.207754,0.313598 0.311734,0.678151 0.311734,1.09366 0,0.374495 -0.073532,0.702386 -0.220182,0.983257 -0.14665,0.281286 -0.345911,0.51721 -0.598405,0.708807 -0.252494,0.19139 -0.537716,0.334105 -0.855457,0.427521 -0.317534,0.0936238 -0.651431,0.140643 -1.00169,0.140643l-2.15024 0 0 -8.62541 1.80806 0zm0.293299 4.10495c0.65951,0 1.13219,-0.175027 1.4172,-0.525495 0.285221,-0.350261 0.427728,-0.789796 0.427728,-1.31923 0,-0.668209 -0.19139,-1.14461 -0.574171,-1.42963 -0.382988,-0.285014 -0.896055,-0.427728 -1.53941,-0.427728l-1.40498 0 0 3.70208 1.67363 0zm0.0246488 4.12939c0.415093,0 0.793938,-0.067318 1.13591,-0.201747 0.342183,-0.134222 0.617047,-0.339697 0.824801,-0.61684 0.207754,-0.276936 0.311734,-0.618912 0.311734,-1.02634 0,-0.439742 -0.116201,-0.798081 -0.348397,-1.07481 -0.231988,-0.277143 -0.523216,-0.478683 -0.873477,-0.605034 -0.350261,-0.126144 -0.704664,-0.189319 -1.063,-0.189319l-1.68585 0 0 3.71409 1.69828 0z"/>
  <polygon class="fil2" points="154.162,8.49719 166.829,8.49719 166.829,12.4282 154.162,12.4282 "/>
  <polygon class="fil2" points="154.162,16.8763 166.829,16.8763 166.829,20.8073 154.162,20.8073 "/>
  <polygon class="fil2" points="154.162,25.2554 166.829,25.2554 166.829,29.1864 154.162,29.1864 "/>
 </g>
</svg>
